
<svg style="position: absolute; width: 0; height: 0; overflow: hidden;" version="1.1" xmlns="http://www.w3.org/2000/svg" xmlns:xlink="http://www.w3.org/1999/xlink">
<defs>
<symbol id="social-behance" viewBox="0 0 32 32">
<title>behance</title>
<path class="path1" d="M20.2 8h7.2v2.1h-7.2zM23.9 11.4c-6.7 0-6.7 6.7-6.7 6.7s-.5 6.6 6.7 6.6c0 0 5.9.3 5.9-4.6h-3.1s.1 1.9-2.8 1.9c0 0-3.1.2-3.1-3h9c.2 0 1.1-7.6-5.9-7.6zm-3 5.2s.4-2.7 3.1-2.7 2.6 2.7 2.6 2.7h-5.7zM13.3 14.9s2.6-.2 2.6-3.3C15.9 8.5 13.8 7 11 7H2v17.4h9s5.5.2 5.5-5.1c.1-.1.3-4.4-3.2-4.4zM6 10.1h5s1.2 0 1.2 1.8-.7 2.1-1.5 2.1H6v-3.9zm4.8 11.2H6v-4.6h5s1.8 0 1.8 2.4c.1 2-1.3 2.2-2 2.2z"></path>
</symbol>
<symbol id="social-bloglovin" viewBox="0 0 32 32">
<title>bloglovin</title>
<path class="path1" d="M16 28c-.27 0-.5-.093-.688-.282l-9.75-9.407c-.104-.083-.248-.217-.43-.406s-.47-.53-.868-1.023-.75-1-1.063-1.522-.59-1.152-.835-1.89S2 12.01 2 11.312c0-2.29.66-4.084 1.983-5.375S7.135 4 9.467 4c.646 0 1.305.112 1.977.336s1.296.527 1.875.907 1.074.737 1.492 1.07c.416.334.813.688 1.188 1.063.375-.375.77-.73 1.188-1.063s.914-.69 1.493-1.07 1.205-.682 1.876-.907S21.886 4 22.533 4c2.334 0 4.16.646 5.484 1.938S30 9.022 30 11.313c0 2.302-1.192 4.646-3.578 7.032l-9.734 9.375c-.188.188-.416.28-.688.28z"></path>
</symbol>
<symbol id="social-dribbble" viewBox="0 0 32 32">
<title>dribbble</title>
<path class="path1" d="M20.571 26.786q-.75-4.304-2.5-8.893h-.036l-.036.018q-.286.107-.768.295t-1.804.875-2.446 1.464-2.339 2.045-1.839 2.643l-.268-.196q3.286 2.679 7.464 2.679 2.357 0 4.571-.929zm-3.303-10.84q-.375-.875-.946-1.982-5.554 1.661-12.018 1.661-.018.125-.018.375 0 2.214.786 4.223t2.214 3.598q.893-1.589 2.205-2.973t2.545-2.223 2.33-1.446 1.777-.857l.661-.232q.071-.018.232-.063t.232-.08zm-1.911-3.785Q13.214 8.357 11 5.411 8.536 6.572 6.821 8.732t-2.286 4.857q5.393 0 10.821-1.429zm12.214 5.696q-3.75-1.071-7.304-.518 1.554 4.268 2.286 8.375 1.982-1.339 3.304-3.384t1.714-4.473zM13.196 4.625q-.018 0-.036.018.018-.018.036-.018zm10.536 2.589Q20.428 4.285 16 4.285q-1.357 0-2.768.339 2.339 3.036 4.393 6.821 1.232-.464 2.321-1.08t1.723-1.098 1.17-1.018.67-.723zm3.982 8.661q-.054-4.143-2.661-7.321l-.018.018q-.161.214-.339.438t-.777.795-1.268 1.08-1.786 1.161-2.348 1.152q.446.946.786 1.696.036.107.116.313t.134.295q.643-.089 1.33-.125t1.313-.036 1.232.027 1.143.071 1.009.098.857.116.652.107.446.08zm2 .125q0 3.732-1.839 6.884t-4.991 4.991T16 29.714t-6.884-1.839-4.991-4.991T2.286 16t1.839-6.884 4.991-4.991T16 2.286t6.884 1.839 4.991 4.991T29.714 16z"></path>
</symbol>
<symbol id="social-email" viewBox="0 0 32 32">
<title>email</title>
<path class="path1" d="M28.002 24.457V12.466c-.334.375-.693.718-1.077 1.03-2.789 2.145-5.007 3.904-6.652 5.277-.53.448-.962.796-1.296 1.046s-.784.502-1.35.757c-.568.255-1.1.382-1.6.382h-.03c-.5 0-1.034-.127-1.6-.382-.568-.255-1.018-.507-1.35-.757-.334-.25-.764-.598-1.296-1.046-1.645-1.373-3.862-3.134-6.652-5.277-.386-.313-.745-.655-1.077-1.03v11.991c0 .136.05.252.148.352.098.098.216.148.352.148h22.984c.136 0 .252-.05.352-.148.095-.098.145-.216.145-.352zm0-16.409v-.382l-.007-.204-.046-.195-.086-.141-.141-.118-.218-.039H4.518c-.136 0-.252.05-.352.148-.098.098-.148.216-.148.352 0 1.748.764 3.227 2.295 4.434 2.009 1.582 4.096 3.232 6.261 4.95.063.052.245.205.546.461s.541.45.718.586c.177.136.409.3.695.491.286.193.548.336.789.429.239.093.463.141.671.141h.03c.209 0 .432-.046.671-.141.239-.093.502-.238.789-.429.286-.193.518-.357.695-.491.177-.136.416-.33.718-.586s.484-.409.546-.461c2.164-1.718 4.252-3.368 6.261-4.95.563-.448 1.086-1.048 1.57-1.804.486-.754.729-1.438.729-2.052zM30 7.47v16.988c0 .688-.245 1.275-.734 1.764s-1.077.734-1.764.734H4.518c-.688 0-1.275-.245-1.764-.734s-.734-1.077-.734-1.764V7.47c0-.688.245-1.275.734-1.764s1.077-.734 1.764-.734h22.984c.688 0 1.275.245 1.764.734S30 6.783 30 7.47z"></path>
</symbol>
<symbol id="social-facebook" viewBox="0 0 32 32">
<title>facebook</title>
<path class="path1" d="M23.738.214v4.714h-2.804c-1.023 0-1.714.214-2.071.643s-.536 1.071-.536 1.929v3.375h5.232l-.696 5.286h-4.536v13.554h-5.464V16.161H8.309v-5.286h4.554V6.982c0-2.214.62-3.932 1.857-5.152S17.607 0 19.666 0c1.75 0 3.107.071 4.071.214z"></path>
</symbol>
<symbol id="social-flickr" viewBox="0 0 32 32">
<title>flickr</title>
<path class="path1" d="M14.032 16.007c0-1.664-.586-3.08-1.757-4.25S9.689 10 8.025 10s-3.08.586-4.25 1.757-1.757 2.588-1.757 4.25.586 3.08 1.757 4.25c1.17 1.17 2.588 1.757 4.25 1.757s3.08-.586 4.25-1.757c1.171-1.17 1.757-2.586 1.757-4.25zm15.982 0c0-1.664-.586-3.08-1.757-4.25S25.67 10 24.007 10s-3.08.586-4.25 1.757c-1.17 1.17-1.757 2.588-1.757 4.25s.586 3.08 1.757 4.25c1.17 1.17 2.587 1.757 4.25 1.757s3.08-.586 4.25-1.757c1.171-1.17 1.757-2.586 1.757-4.25z"></path>
</symbol>
<symbol id="social-github" viewBox="0 0 32 32">
<title>github</title>
<path class="path1" d="M12.571 20.596c0 .477-.075.964-.223 1.464s-.405.952-.768 1.357-.795.607-1.295.607-.932-.202-1.295-.607c-.363-.405-.62-.857-.768-1.357s-.223-.988-.223-1.464.075-.964.223-1.464.405-.952.768-1.357.795-.607 1.295-.607.932.202 1.295.607.62.857.768 1.357.223.988.223 1.464zm11.429 0c0 .477-.075.964-.223 1.464s-.405.952-.768 1.357-.795.607-1.295.607-.932-.202-1.295-.607-.62-.857-.768-1.357-.223-.988-.223-1.464.075-.964.223-1.464.405-.952.768-1.357.795-.607 1.295-.607.932.202 1.295.607.62.857.768 1.357.223.988.223 1.464zm2.857 0c0-1.429-.411-2.643-1.232-3.643s-1.934-1.5-3.339-1.5c-.488 0-1.648.125-3.482.375-.845.13-1.78.196-2.804.196s-1.959-.066-2.804-.196c-1.809-.25-2.97-.375-3.482-.375-1.405 0-2.518.5-3.339 1.5s-1.232 2.214-1.232 3.643c0 1.048.191 1.961.571 2.741s.862 1.393 1.446 1.839 1.309.804 2.179 1.071 1.702.443 2.5.527 1.684.125 2.661.125h3c.977 0 1.863-.041 2.661-.125s1.63-.259 2.5-.527 1.595-.625 2.179-1.071 1.066-1.059 1.446-1.839.571-1.695.571-2.741zm4-3.142c0 2.464-.363 4.434-1.089 5.911-.452.916-1.08 1.709-1.884 2.375s-1.643 1.179-2.518 1.536-1.887.639-3.036.848-2.17.339-3.063.393-1.887.08-2.982.08c-.929 0-1.773-.018-2.536-.054s-1.639-.111-2.634-.223-1.902-.291-2.723-.536-1.638-.55-2.446-.92-1.53-.852-2.161-1.446-1.143-1.28-1.536-2.054c-.738-1.464-1.107-3.434-1.107-5.911 0-2.821.809-5.179 2.429-7.071-.321-.977-.482-1.988-.482-3.036 0-1.38.304-2.679.911-3.893 1.286 0 2.416.236 3.393.705s2.102 1.205 3.375 2.205c1.75-.416 3.589-.625 5.518-.625 1.762 0 3.429.191 5 .571 1.25-.977 2.363-1.696 3.339-2.161s2.102-.696 3.375-.696c.607 1.214.911 2.513.911 3.893 0 1.036-.161 2.036-.482 3 1.62 1.904 2.429 4.273 2.429 7.107z"></path>
</symbol>
<symbol id="social-gplus" viewBox="0 0 32 32">
<title>gplus</title>
<path class="path1" d="M1 15.6c-.3 4 2.3 7.9 6.1 9.4 3.7 1.4 8.5.5 10.8-2.9 1.6-2.1 1.9-4.8 1.7-7.4h-9.1v3.2c1.8.1 3.6 0 5.4.1-.8 4-6.3 5.3-9.2 2.7-3-2.3-2.8-7.4.3-9.5 2.2-1.7 5.2-1.3 7.4.2.9-.8 1.6-1.6 2.4-2.5-1.8-1.4-4-2.5-6.4-2.4-4.8-.1-9.3 4.2-9.4 9.1zM25.6 12v2.7h-2.7v2.7h2.7v2.7h2.7v-2.7H31v-2.7h-2.7V12h-2.7z"/><path d="M1 15.6c.1-4.9 4.6-9.2 9.5-9 2.4-.1 4.6.9 6.4 2.4-.8.9-1.6 1.7-2.4 2.5-2.2-1.5-5.2-1.9-7.4-.2-3.1 2.1-3.2 7.2-.3 9.5 2.9 2.6 8.4 1.3 9.2-2.7-1.8 0-3.6 0-5.4-.1v-3.2h9.1c.2 2.5-.2 5.3-1.7 7.4-2.4 3.3-7.1 4.3-10.8 2.9C3.3 23.6.7 19.6 1 15.6zM25.6 12h2.7v2.7H31v2.7h-2.7v2.7h-2.7v-2.7h-2.7v-2.7h2.7c-.1-.9-.1-1.8 0-2.7z"></path>
</symbol>
<symbol id="social-instagram" viewBox="0 0 32 32">
<title>instagram</title>
<path class="path1" d="M29.448 15.936c0 2.661-.029 4.502-.087 5.525-.116 2.416-.836 4.288-2.161 5.613s-3.195 2.045-5.613 2.161c-1.023.057-2.864.087-5.525.087s-4.502-.029-5.525-.087c-2.416-.116-4.287-.836-5.612-2.161s-2.045-3.195-2.161-5.613c-.059-1.021-.087-2.864-.087-5.525s.029-4.502.087-5.525c.116-2.416.836-4.287 2.161-5.612s3.195-2.045 5.612-2.161c1.021-.057 2.864-.087 5.525-.087s4.502.029 5.525.087c2.416.116 4.288.836 5.613 2.161s2.045 3.195 2.161 5.612c.059 1.023.087 2.864.087 5.525zM17.396 4.948c-.807.005-1.252.009-1.334.009s-.525-.004-1.334-.009c-.807-.005-1.42-.005-1.839 0-.418.005-.979.023-1.682.052s-1.302.088-1.795.175c-.495.088-.909.195-1.246.323-.58.232-1.093.57-1.534 1.011s-.779.954-1.011 1.534c-.129.338-.236.752-.323 1.246s-.145 1.093-.175 1.795c-.029.704-.046 1.264-.052 1.682s-.005 1.032 0 1.839c.005.807.009 1.252.009 1.334s-.004.525-.009 1.334c-.005.807-.005 1.42 0 1.839.005.418.023.979.052 1.682s.088 1.302.175 1.795c.088.495.195.909.323 1.246.232.58.57 1.093 1.011 1.534s.952.779 1.534 1.011c.338.129.752.236 1.246.323.493.087 1.093.145 1.795.175.704.029 1.264.046 1.682.052s1.03.005 1.839 0c.807-.005 1.252-.009 1.334-.009.08 0 .525.004 1.334.009.807.005 1.42.005 1.839 0 .418-.005.979-.023 1.682-.052s1.302-.087 1.795-.175c.493-.087.909-.195 1.246-.323.58-.232 1.093-.57 1.534-1.011s.779-.952 1.011-1.534c.129-.337.236-.752.323-1.246.087-.493.145-1.093.175-1.795.029-.704.046-1.264.052-1.682s.005-1.03 0-1.839c-.005-.807-.009-1.252-.009-1.334 0-.08.004-.525.009-1.334.005-.807.005-1.42 0-1.839-.005-.418-.023-.979-.052-1.682s-.087-1.302-.175-1.795c-.087-.493-.195-.909-.323-1.246-.232-.58-.57-1.093-1.011-1.534s-.954-.779-1.534-1.011c-.337-.129-.752-.236-1.246-.323S21.619 5.03 20.917 5c-.704-.029-1.264-.046-1.682-.052-.418-.007-1.03-.007-1.839 0zm3.531 6.125c1.336 1.336 2.004 2.957 2.004 4.862s-.668 3.527-2.004 4.863c-1.336 1.336-2.957 2.004-4.863 2.004s-3.527-.668-4.863-2.004c-1.338-1.336-2.005-2.957-2.005-4.863s.668-3.527 2.004-4.863c1.336-1.336 2.957-2.004 4.863-2.004 1.907 0 3.527.668 4.864 2.004zm-1.709 8.018c.871-.871 1.307-1.923 1.307-3.155s-.436-2.284-1.307-3.155-1.923-1.307-3.155-1.307-2.284.436-3.155 1.307-1.307 1.923-1.307 3.155.436 2.284 1.307 3.155 1.923 1.307 3.155 1.307 2.284-.436 3.155-1.307zm5.125-11.434c.314.314.471.691.471 1.132s-.157.82-.471 1.132c-.314.314-.691.471-1.132.471s-.82-.157-1.132-.471c-.314-.314-.471-.691-.471-1.132s.157-.82.471-1.132c.314-.314.691-.471 1.132-.471.441.002.818.159 1.132.471z"></path>
</symbol>
<symbol id="social-linkedin" viewBox="0 0 32 32">
<title>linkedin</title>
<path class="path1" d="M8.518 11.161v17.696H2.625V11.161h5.893zm.375-5.465Q8.911 7 7.991 7.875t-2.42.875h-.036q-1.464 0-2.357-.875t-.893-2.179q0-1.321.92-2.188t2.402-.866 2.375.866.911 2.188zm20.821 13.018v10.143h-5.875v-9.464q0-1.875-.723-2.938t-2.259-1.063q-1.125 0-1.884.616t-1.134 1.527q-.196.536-.196 1.446v9.875h-5.875q.036-7.125.036-11.554t-.018-5.286l-.018-.857h5.875v2.571h-.036q.357-.571.732-1t1.009-.929 1.554-.777 2.045-.277q3.054 0 4.911 2.027t1.857 5.938z"></path>
</symbol>
<symbol id="social-medium" viewBox="0 0 32 32">
<title>medium</title>
<path class="path1" d="M11.329 8.579v18.329c0 .261-.064.482-.195.664s-.32.273-.57.273c-.177 0-.348-.041-.516-.125l-7.266-3.641c-.218-.104-.404-.279-.555-.523S2 23.068 2 22.829V5.016c0-.209.052-.386.157-.532s.255-.218.454-.218c.146 0 .375.079.688.234l7.984 4c.03.032.046.057.046.079zm1 1.578l8.343 13.532-8.343-4.157v-9.375zM30 10.438v16.468c0 .261-.073.471-.218.632s-.343.243-.593.243-.495-.068-.734-.204l-6.891-3.438L30 10.437zm-.046-1.875c0 .032-1.336 2.216-4.007 6.555s-4.238 6.877-4.695 7.618l-6.095-9.907 5.063-8.234c.177-.291.448-.438.813-.438.146 0 .282.032.407.093l8.454 4.218c.039.021.061.054.061.095z"></path>
</symbol>
<symbol id="social-periscope" viewBox="0 0 32 32">
<title>periscope</title>
<path class="path1" d="M16.032.002C9.636.002 4.45 5.186 4.45 11.582c0 8.611 9.261 18.073 11.58 18.073s11.58-9.462 11.58-18.073C27.612 5.186 22.426.002 16.031.002zm0 18.644c-3.88 0-7.027-3.146-7.027-7.027 0-1.537.496-2.961 1.334-4.118.089 1.486 1.321 2.664 2.829 2.664 1.568 0 2.838-1.271 2.838-2.838 0-1.12-.65-2.086-1.593-2.546.52-.123 1.061-.189 1.618-.189 3.88 0 7.027 3.146 7.027 7.027 0 3.882-3.145 7.027-7.025 7.027z"></path>
</symbol>
<symbol id="social-phone" viewBox="0 0 32 32">
<title>phone</title>
<path class="path1" d="M28.571 22.143q0 .482-.179 1.259t-.375 1.223q-.375.893-2.179 1.893-1.679.911-3.321.911-.482 0-.938-.063t-1.027-.223-.848-.259-.991-.366-.875-.321q-1.75-.625-3.125-1.482-2.286-1.411-4.723-3.848t-3.848-4.723q-.857-1.375-1.482-3.125-.054-.161-.321-.875t-.366-.991-.259-.848-.223-1.027-.063-.938q0-1.643.911-3.321 1-1.804 1.893-2.179.446-.196 1.223-.375t1.259-.179q.25 0 .375.054.321.107.946 1.357.196.339.536.964t.625 1.134.554.955q.054.071.313.446t.384.634.125.509q0 .357-.509.893t-1.107.982-1.107.946-.509.821q0 .161.089.402t.152.366.25.429.205.339q1.357 2.446 3.107 4.196t4.196 3.107q.036.018.339.205t.429.25.366.152.402.089q.321 0 .821-.509t.946-1.107.982-1.107.893-.509q.25 0 .509.125t.634.384.446.313q.446.268.955.554t1.134.625.964.536q1.25.625 1.357.946.054.125.054.375z"></path>
</symbol>
<symbol id="social-pinterest" viewBox="0 0 32 32">
<title>pinterest</title>
<path class="path1" d="M4.571 10.661q0-1.929.67-3.634t1.848-2.973 2.714-2.196T13.107.465t3.607-.464q2.821 0 5.25 1.188t3.946 3.455 1.518 5.125q0 1.714-.339 3.357t-1.071 3.161-1.786 2.67-2.589 1.839-3.375.688q-1.214 0-2.411-.571t-1.714-1.571q-.179.696-.5 2.009t-.42 1.696-.366 1.268-.464 1.268-.571 1.116-.821 1.384-1.107 1.545l-.25.089-.161-.179q-.268-2.804-.268-3.357 0-1.643.384-3.688t1.188-5.134.929-3.625q-.571-1.161-.571-3.018 0-1.482.929-2.786t2.357-1.304q1.089 0 1.696.723t.607 1.83q0 1.179-.786 3.411t-.786 3.339q0 1.125.804 1.866t1.946.741q.982 0 1.821-.446t1.402-1.214 1-1.696.679-1.973.357-1.982.116-1.777q0-3.089-1.955-4.813t-5.098-1.723q-3.571 0-5.964 2.313t-2.393 5.866q0 .786.223 1.518t.482 1.161.482.813.223.545q0 .5-.268 1.304t-.661.804q-.036 0-.304-.054-.911-.268-1.616-1t-1.089-1.688-.58-1.929-.196-1.902z"></path>
</symbol>
<symbol id="social-rss" viewBox="0 0 32 32">
<title>rss</title>
<path class="path1" d="M10.286 24q0 1.429-1 2.429t-2.429 1-2.429-1-1-2.429 1-2.429 2.429-1 2.429 1 1 2.429zm9.143 2.196q.036.5-.304.857-.321.375-.839.375h-2.411q-.446 0-.768-.295t-.357-.741q-.393-4.089-3.295-6.991t-6.991-3.295q-.446-.036-.741-.357t-.295-.768V12.57q0-.518.375-.839.304-.304.768-.304h.089q2.857.232 5.464 1.438t4.625 3.241q2.036 2.018 3.241 4.625t1.438 5.464zm9.142.036q.036.482-.321.839-.321.357-.821.357h-2.554q-.464 0-.795-.313t-.348-.759q-.214-3.839-1.804-7.295t-4.134-6-6-4.134-7.295-1.821q-.446-.018-.759-.348t-.313-.777V3.427q0-.5.357-.821.321-.321.786-.321h.054q4.679.232 8.955 2.143t7.598 5.25q3.339 3.321 5.25 7.598t2.143 8.955z"></path>
</symbol>
<symbol id="social-snapchat" viewBox="0 0 32 32">
<title>snapchat</title>
<path class="path1" d="M16.355 2.455c1.563-.011 2.964.388 4.207 1.198 1.241.811 2.195 1.932 2.861 3.368.314.677.471 1.72.471 3.13 0 .548-.052 1.662-.157 3.341.163.082.327.123.489.123.209 0 .507-.079.891-.236.386-.157.682-.236.893-.236.337 0 .664.105.98.314.314.211.473.479.473.805 0 .373-.184.688-.552.945s-.77.441-1.207.552c-.438.111-.839.28-1.207.507s-.552.505-.552.83c0 .175.07.425.211.752.432.957 1.029 1.83 1.793 2.623s1.605 1.382 2.527 1.766c.327.139.793.273 1.4.402.327.07.489.275.489.613 0 .816-1.277 1.418-3.83 1.802-.082.129-.146.355-.193.682s-.129.598-.245.813c-.116.216-.309.323-.577.323-.234 0-.595-.038-1.084-.114-.489-.075-.863-.114-1.12-.114-.432 0-.793.029-1.084.087-.373.059-.741.189-1.102.393s-.7.425-1.014.664c-.314.239-.654.475-1.014.709s-.805.429-1.329.586c-.525.157-1.102.236-1.732.236-.607 0-1.17-.079-1.688-.236-.52-.157-.957-.354-1.313-.586-.355-.234-.691-.47-1.005-.709s-.654-.461-1.014-.664c-.361-.204-.723-.336-1.084-.393-.304-.059-.671-.087-1.102-.087-.28 0-.662.045-1.145.13-.484.087-.825.13-1.023.13-.291 0-.496-.107-.612-.323s-.198-.493-.245-.83c-.046-.337-.111-.571-.193-.7-2.554-.384-3.83-.986-3.83-1.802 0-.337.163-.543.489-.613.605-.129 1.073-.262 1.4-.402.909-.373 1.752-.962 2.527-1.766.775-.805 1.373-1.679 1.793-2.623.139-.327.209-.577.209-.752 0-.327-.184-.604-.552-.83s-.773-.4-1.216-.516c-.443-.116-.848-.3-1.216-.552-.368-.25-.552-.557-.552-.918 0-.314.152-.58.455-.796s.623-.323.963-.323c.175 0 .455.075.839.227.386.152.693.227.927.227.211 0 .396-.041.561-.123-.105-1.655-.157-2.764-.157-3.323 0-1.423.157-2.471.473-3.148.746-1.598 1.748-2.752 3.009-3.462 1.257-.711 2.796-1.077 4.614-1.1z"></path>
</symbol>
<symbol id="social-stumbleupon" viewBox="0 0 32 32">
<title>stumbleupon</title>
<path class="path1" d="M17.495 12.636v-1.72c0-.409-.146-.757-.438-1.05-.291-.291-.641-.438-1.05-.438s-.757.146-1.05.438c-.291.291-.438.641-.438 1.05v8.92c0 1.7-.613 3.154-1.836 4.357S9.988 26 8.269 26c-1.73 0-3.204-.609-4.423-1.829s-1.829-2.695-1.829-4.423v-3.877h4.78v3.818c0 .418.146.77.438 1.057s.641.43 1.05.43c.409 0 .757-.143 1.05-.43.291-.288.438-.639.438-1.057v-9.036c0-1.661.614-3.08 1.843-4.255s2.695-1.764 4.395-1.764c1.711 0 3.177.593 4.402 1.779s1.836 2.614 1.836 4.286v1.982l-2.843.845-1.911-.889zm7.725 3.235H30v3.877c0 1.73-.609 3.204-1.829 4.423S25.476 26 23.748 26c-1.72 0-3.191-.605-4.416-1.814s-1.836-2.67-1.836-4.38v-3.905l1.909.889 2.843-.845v3.936c0 .409.146.755.438 1.043s.641.43 1.05.43c.409 0 .757-.143 1.05-.43.291-.288.438-.634.438-1.043v-4.009z"></path>
</symbol>
<symbol id="social-tumblr" viewBox="0 0 32 32">
<title>tumblr</title>
<path class="path1" d="M23.141 23.732l1.429 4.232c-.273.416-.934.809-1.982 1.179s-2.102.559-3.161.571c-1.238.023-2.371-.13-3.402-.464s-1.879-.773-2.545-1.321-1.232-1.179-1.696-1.893-.795-1.429-.991-2.143-.295-1.416-.295-2.107v-9.714h-3V8.233c.857-.309 1.625-.723 2.304-1.241s1.22-1.054 1.625-1.607.75-1.161 1.036-1.821.488-1.25.607-1.768.209-1.045.268-1.58c.012-.059.039-.111.08-.152s.088-.063.134-.063h4.357v7.571h5.946v4.5h-5.964v9.25c0 .357.039.691.116 1s.211.621.402.938.486.563.884.741.884.262 1.455.25c.929-.023 1.727-.196 2.393-.518z"></path>
</symbol>
<symbol id="social-twitter" viewBox="0 0 32 32">
<title>twitter</title>
<path class="path1" d="M30.071 7.286q-1.196 1.75-2.893 2.982.018.25.018.75 0 2.321-.679 4.634t-2.063 4.437-3.295 3.759-4.607 2.607-5.768.973q-4.839 0-8.857-2.589.625.071 1.393.071 4.018 0 7.161-2.464-1.875-.036-3.357-1.152t-2.036-2.848q.589.089 1.089.089.768 0 1.518-.196-2-.411-3.313-1.991t-1.313-3.67v-.071q1.214.679 2.607.732-1.179-.786-1.875-2.054t-.696-2.75q0-1.571.786-2.911Q6.052 8.285 9.15 9.883t6.634 1.777q-.143-.679-.143-1.321 0-2.393 1.688-4.08t4.08-1.688q2.5 0 4.214 1.821 1.946-.375 3.661-1.393-.661 2.054-2.536 3.179 1.661-.179 3.321-.893z"></path>
</symbol>
<symbol id="social-vimeo" viewBox="0 0 32 32">
<title>vimeo</title>
<path class="path1" d="M30.518 9.25q-.179 4.214-5.929 11.625-5.946 7.696-10.036 7.696-2.536 0-4.286-4.696-.786-2.857-2.357-8.607-1.286-4.679-2.804-4.679-.321 0-2.268 1.357l-1.375-1.75q.429-.375 1.929-1.723T5.713 6.41q2.786-2.464 4.304-2.607 1.696-.161 2.732.991t1.446 3.634q.786 5.125 1.179 6.661.982 4.446 2.143 4.446.911 0 2.75-2.875 1.804-2.875 1.946-4.393.232-2.482-1.946-2.482-1.018 0-2.161.464 2.143-7.018 8.196-6.821 4.482.143 4.214 5.821z"></path>
</symbol>
<symbol id="social-xing" viewBox="0 0 32 32">
<title>xing</title>
<path class="path1" d="M14.15 11.654c-.118.213-1.636 2.907-4.554 8.08-.32.543-.704.814-1.152.814H4.208c-.248 0-.432-.1-.55-.302-.118-.2-.118-.413 0-.637l4.484-7.938c.012 0 .012-.005 0-.018L5.29 6.708c-.141-.259-.148-.479-.018-.655.107-.177.295-.266.568-.266h4.236c.471 0 .863.266 1.17.798l2.904 5.068zM28.434.277c.13.189.13.407 0 .655l-9.357 16.552v.018L25.031 28.4c.13.236.136.455.018.655-.118.177-.307.266-.568.266h-4.236c-.496 0-.886-.266-1.17-.798L13.07 17.502c.213-.379 3.35-5.943 9.411-16.693.295-.532.673-.798 1.134-.798h4.271c.259 0 .441.089.548.266z"></path>
</symbol>
<symbol id="social-youtube" viewBox="0 0 32 32">
<title>youtube</title>
<path class="path1" d="M29.7 10.3s-.3-2-1.1-2.8c-1.1-1.1-2.3-1.1-2.8-1.2C21.9 6 16 6 16 6s-5.9 0-9.8.3c-.6.1-1.7.1-2.8 1.2-.8.9-1.1 2.8-1.1 2.8S2 12.6 2 14.9v2.2c0 2.3.3 4.6.3 4.6s.3 2 1.1 2.8c1.1 1.1 2.5 1.1 3.1 1.2 2.2.2 9.5.3 9.5.3s5.9 0 9.8-.3c.5-.1 1.7-.1 2.8-1.2.8-.9 1.1-2.8 1.1-2.8s.3-2.3.3-4.6v-2.2c0-2.3-.3-4.6-.3-4.6zm-16.6 9.4v-8l7.6 4-7.6 4z"></path>
</symbol>
<symbol id="social-stackoverflow" viewBox="0 0 120 120">
<title>stack overflow</title>
<polygon class="path1" points="84.4,93.8 84.4,70.6 92.1,70.6 92.1,101.5 22.6,101.5 22.6,70.6 30.3,70.6 30.3,93.8 "/>
<path class="path1" d="M38.8,68.4l37.8,7.9l1.6-7.6l-37.8-7.9L38.8,68.4z M43.8,50.4l35,16.3l3.2-7l-35-16.4L43.8,50.4z M53.5,33.2
	l29.7,24.7l4.9-5.9L58.4,27.3L53.5,33.2z M72.7,14.9l-6.2,4.6l23,31l6.2-4.6L72.7,14.9z M38,86h38.6v-7.7H38V86z"/>
</symbol>


<symbol id="social-drupal" viewBox="0 0 1257.8444 1571.4969">
<title>drupal</title>
<path class="path1" d="M 1080,360 C 844.49943,360 943.10333,384.29681 765.29834,513.05449 L 1274.9692,477.48563 C 1092.2305,344.72142 1309.8245,360 1080,360 Z m 857.8434,314.73114 c 46.2567,33.60664 12.5918,-51.77334 53.7995,-10.56566 70.5253,70.52529 -18.5638,161.9849 29.3161,246.4439 l 0,-300.54883 c 0,-25.07931 -37.1063,-68.98309 -45.2695,-45.26953 z m 83.1156,235.87824 0,1058.54882 C 2109.4349,1812.6272 2160,1632.0392 2160,1440 c 0,-188.4349 -48.4246,-369.5453 -139.041,-529.39062 z m 0,1058.54882 c -51.1077,90.4195 -114.8636,172.8089 -188.8477,244.7344 l 143.5782,0 c 25.0793,0 45.2695,-20.1902 45.2695,-45.2696 z m -188.8477,244.7344 -1504.22263,0 C 522.58855,2403.1751 788.06978,2520 1080,2520 c 291.9302,0 557.4115,-116.8249 752.1113,-306.1074 z m -1504.22263,0 C 245.88826,2134.1738 176.44919,2041.6021 122.875,1939.4883 l 0,229.1347 c 0,25.0794 20.19023,45.2696 45.26953,45.2696 z M 122.875,1939.4883 l 0,-998.97658 C 44.433512,1090.0232 0,1259.9805 0,1440 c 0,180.0195 44.433512,349.9768 122.875,499.4883 z M 145.50973,723.86501 c 78.16278,-148.98028 -91.213645,26.30563 44.21975,-71.7686 l -21.58495,-87.30539 c -6.01924,-24.34625 -50.16176,20.67201 -45.26953,45.26953 z M 1080,596.59961 c -30.8,116.5 -135.40039,221.09961 -243.40039,329.09961 -162.9,162.89998 -348,347.99998 -348,623.99998 0,325.7 265.70039,591.4004 591.40039,591.4004 325.7,0 591.4004,-265.7004 591.4004,-591.4004 0,-276 -185.1,-461.1 -348,-623.99998 -109.7,-108 -212.5004,-212.49961 -243.4004,-329.09961 z"
     transform="translate(-446.22754,-580.95807)"/></symbol>
<!--
<symbol id="social-drupal" viewBox="0 0 2160 2880">
<title>drupal</title>
<path class="path1" fill="#000000" d="M1842.9,677.1C1638.9,473.1,1368,360,1080,360C485.1,360,0,845.1,0,1440s485.1,1080,1080,1080
	s1080-485.1,1080-1080C2160,1152,2046.9,881.1,1842.9,677.1z M1080,2141.1c-325.7,0-591.4-265.7-591.4-591.4
	c0-276,185.1-461.1,348-624c108-108,212.6-212.6,243.4-329.1c30.9,116.6,133.7,221.1,243.4,329.1c162.9,162.9,348,348,348,624
	C1671.4,1875.4,1405.7,2141.1,1080,2141.1z"/>
</symbol>-->
<!--
<symbol id="social-drupal" viewBox="0 0 755 826">
<title>drupal</title>

<path fill="#00598E" d="M539.2,167.8c-39.8-24.8-77.2-34.5-114.8-59.2c-23.2-15.8-55.5-53.2-82.5-85.5c-5.2,51.8-21,72.8-39,87.8
	c-38.2,30-62.2,39-95.2,57C179.9,182.1,29.2,272.1,29.2,465.6s162.8,336,343.5,336s337.5-131.2,337.5-330S563.2,182.8,539.2,167.8z"
	/>
<path fill="#FFFFFF" d="M478.2,633.5c12,0,24.8,0.8,33.8,6.8s14.2,19.5,17.2,27s0,12-6,15c-5.2,3-6,1.5-11.2-8.2s-9.8-19.5-36-19.5
	s-34.5,9-47.2,19.5s-17.2,14.2-21.8,8.2s-3-12,5.2-19.5s21.8-19.5,34.5-24.8S466.2,633.5,478.2,633.5L478.2,633.5z"/>
<path fill="#FFFFFF" d="M353.8,719c15,12,37.5,21.8,85.5,21.8S521,727.2,536,716c6.8-5.2,9.8-0.8,10.5,2.2s2.2,7.5-3,12.8
	c-3.8,3.8-38.2,27.8-78.8,31.5s-95.2,6-128.2-24c-5.2-5.2-3.8-12.8,0-15.8s6.8-5.2,11.2-5.2S351.5,717.5,353.8,719L353.8,719z"/>
<path fill="#0073BA" d="M170,662c57-0.8,67.5-10.5,117.8-33c271.5-121.5,321.8-232.5,331.5-258s24-66.8,9-112.5
	c-2.9-8.8-5-15.9-6.5-21.6c-36.1-40.3-71.9-62.4-82.7-69.1c-39-24.8-77.3-34.5-114.8-59.2c-23.2-15-55.5-53.2-82.5-85.5
	c-5.2,51.8-20.2,73.5-39,87.8c-38.2,30-62.2,39-95.2,57C179.8,182.8,29,272,29,465.5c0,61.8,16.6,118.4,45.1,166.8l7.4-0.3
	C97.2,646.2,122,662.8,170,662z"/>
<path fill="#004975" d="M539,167.8c-39-24.8-77.2-34.5-114.8-59.2c-23.2-15-55.5-53.2-82.5-85.5c-5.2,51.8-20.2,73.5-39,87.8
	c-38.2,30-62.2,39-95.2,57C179.8,182.8,29,272,29,465.5c0,61.8,16.6,118.4,45.1,166.8c60.7,103.2,175.4,169.2,298.4,169.2
	c180.8,0,337.5-131.2,337.5-330c0-109.1-44.3-185.5-88.3-234.6C585.6,196.5,549.8,174.5,539,167.8z M630.2,255.5
	c49.2,61.6,74.2,134.2,74.2,216c0,47.4-9,92.2-26.8,133.2c-16.9,38.8-41.2,73.2-72.3,102.3c-61.5,57.4-144.1,89-232.7,89
	c-43.8,0-86.8-8.4-127.8-24.9c-40.3-16.2-76.5-39.4-107.8-69C70.9,639.7,34.6,555.7,34.6,465.5c0-80.3,26.1-151.7,77.5-212.2
	c39.3-46.2,81.7-71.8,98-80.6c8-4.3,15.4-8.2,22.6-11.9c22.6-11.6,44-22.6,73.4-45.6c15.7-11.9,32.4-30.8,39.5-78.7
	c24.8,29.5,53.5,62.6,75.5,76.8c19.5,12.9,39.5,21.9,58.8,30.6c18.3,8.2,37.2,16.8,55.9,28.7c0,0,0.7,0.4,0.7,0.4
	C591.4,207.1,620.6,243.6,630.2,255.5z"/>
<path fill="#93C5E4" d="M345.5,38c10.5,30.8,9,46.5,9,53.2s-3.8,24.8-15.8,33.8c-5.2,3.8-6.8,6.8-6.8,7.5c0,3,6.8,5.2,6.8,12
	c0,8.2-3.8,24.8-43.5,64.5s-96.8,75-141,96.8S89,326,83,315.5s2.2-33.8,30-64.5s115.5-75,115.5-75L338,99.5l6-29.2"/>
<path fill="#FFFFFF" d="M345.5,37.2c-6.8,49.5-21.8,64.5-42,80.2c-33.8,25.5-66.8,41.2-74.2,45c-19.5,9.8-90,48.8-126.8,105
	c-11.2,17.2,0,24,2.2,25.5s27.8,4.5,82.5-28.5S266,212,296.8,179.8c16.5-17.2,18.8-27,18.8-31.5c0-5.2-3.8-7.5-9.8-9
	c-3-0.8-3.8-2.2,0-4.5S325.2,125,329,122s21.8-15,22.5-34.5S350.8,54.5,345.5,37.2L345.5,37.2z"/>
<path fill="#FFFFFF" d="M176.8,582.5c0.8-58.5,55.5-113.2,124.5-114c87.8-0.8,148.5,87,192.8,86.2c37.5-0.8,109.5-74.2,144.8-74.2
	c37.5,0,48,39,48,62.2s-7.5,65.2-25.5,91.5s-29.2,36-50.2,34.5c-27-2.2-81-86.2-115.5-87.8c-43.5-1.5-138,90.8-212.2,90.8
	c-45,0-58.5-6.8-73.5-16.5C187.2,639.5,176,615.5,176.8,582.5L176.8,582.5z"/>
<path fill="none" d="M628.2,258.5c15,45.8,0.8,87-9,112.5s-60,136.5-331.5,258c-50.2,22.5-60.8,32.2-117.8,33
	c-48,0.8-72.8-15.8-88.5-30l-7.4,0.3c60.7,103.2,175.4,169.2,298.4,169.2c180.8,0,337.5-131.2,337.5-330
	c0-109.1-44.3-185.5-88.3-234.6C623.2,242.6,625.4,249.7,628.2,258.5z"/>


</symbol>-->
<symbol id="social-www" viewBox="0 0 32 32">
<title>www</title>
<path d="M15.5 0c-8.561 0-15.5 6.939-15.5 15.5s6.939 15.5 15.5 15.5 15.5-6.939 15.5-15.5-6.939-15.5-15.5-15.5zM28.975 15h-5.996c-0.055-2.215-0.449-4.331-1.148-6.268 1.35-0.563 2.598-1.312 3.736-2.197 2.023 2.271 3.288 5.22 3.408 8.465zM14.947 28.972c-1.662-1.384-3.056-3.181-4.076-5.268 1.309-0.409 2.696-0.633 4.129-0.679v5.949c-0.018 0-0.035-0.001-0.053-0.002zM16.051 2.028c1.886 1.57 3.425 3.673 4.466 6.126-1.426 0.487-2.941 0.77-4.518 0.82v-6.949c0.019 0.001 0.035 0.002 0.052 0.003zM17.717 2.198c2.76 0.459 5.236 1.748 7.164 3.614-1.047 0.803-2.191 1.483-3.428 1.998-0.91-2.157-2.187-4.064-3.736-5.612zM15 2.025v6.949c-1.577-0.051-3.093-0.333-4.518-0.82 1.041-2.453 2.58-4.556 4.466-6.126 0.018-0.001 0.034-0.002 0.052-0.003zM9.546 7.811c-1.235-0.515-2.38-1.195-3.427-1.998 1.927-1.866 4.404-3.155 7.164-3.614-1.55 1.547-2.826 3.454-3.737 5.612zM10.105 9.076c1.542 0.535 3.185 0.847 4.895 0.899v5.025h-5.979c0.054-2.094 0.425-4.095 1.084-5.924zM15 16v6.025c-1.577 0.048-3.102 0.306-4.539 0.769-0.866-2.062-1.377-4.359-1.44-6.794h5.979zM13.283 28.802c-2.473-0.411-4.719-1.488-6.545-3.052 0.985-0.683 2.050-1.261 3.188-1.7 0.872 1.808 2.013 3.413 3.357 4.752zM16 28.975v-5.949c1.432 0.046 2.82 0.27 4.129 0.679-1.021 2.087-2.414 3.884-4.076 5.268-0.017 0-0.035 0.001-0.053 0.002zM21.074 24.050c1.137 0.439 2.201 1.018 3.188 1.7-1.826 1.563-4.072 2.641-6.545 3.052 1.344-1.339 2.484-2.944 3.357-4.752zM20.539 22.794c-1.438-0.463-2.963-0.721-4.539-0.769v-6.025h5.979c-0.063 2.435-0.575 4.732-1.44 6.794zM16 15v-5.025c1.709-0.052 3.352-0.363 4.895-0.898 0.658 1.829 1.029 3.83 1.084 5.924h-5.979zM5.434 6.535c1.138 0.885 2.386 1.634 3.735 2.197-0.699 1.937-1.093 4.053-1.148 6.268h-5.996c0.12-3.245 1.385-6.194 3.409-8.465zM2.025 16h5.996c0.062 2.555 0.596 4.968 1.503 7.137-1.267 0.494-2.448 1.152-3.538 1.931-2.348-2.337-3.83-5.532-3.961-9.068zM25.014 25.067c-1.090-0.778-2.271-1.437-3.539-1.931 0.908-2.169 1.441-4.582 1.504-7.137h5.996c-0.131 3.537-1.614 6.732-3.961 9.068z"></path>
</symbol>
</defs>
</svg>
